<svg xmlns="http://www.w3.org/2000/svg" viewBox="0 0 220 240" role="img" aria-label="Recolte, mascotte tomate Souki">
  <defs>
    <radialGradient id="tomato" cx="38%" cy="30%" r="72%">
      <stop offset="0%" stop-color="#FF7A64"/>
      <stop offset="58%" stop-color="#E84B3C"/>
      <stop offset="100%" stop-color="#C9362F"/>
    </radialGradient>
    <linearGradient id="leaf" x1="0" x2="1" y1="0" y2="1">
      <stop offset="0%" stop-color="#69C85A"/>
      <stop offset="100%" stop-color="#1E8A3C"/>
    </linearGradient>
    <linearGradient id="basket" x1="0" x2="1" y1="0" y2="1">
      <stop offset="0%" stop-color="#F3BA6D"/>
      <stop offset="100%" stop-color="#B87128"/>
    </linearGradient>
  </defs>
  <ellipse cx="110" cy="220" rx="58" ry="12" fill="#264129" opacity=".14"/>
  <path d="M51 132c-16 10-25 22-28 38" fill="none" stroke="#D93F34" stroke-linecap="round" stroke-width="16"/>
  <circle cx="20" cy="174" r="13" fill="#F46A55"/>
  <path d="M168 132c17 8 28 20 34 36" fill="none" stroke="#D93F34" stroke-linecap="round" stroke-width="16"/>
  <circle cx="203" cy="172" r="13" fill="#F46A55"/>
  <path d="M48 114c0-45 26-78 62-78s62 33 62 78c0 47-27 86-62 86s-62-39-62-86Z" fill="url(#tomato)"/>
  <path d="M66 92c6-26 22-42 44-42" fill="none" stroke="#FF9A86" stroke-linecap="round" stroke-width="11" opacity=".55"/>
  <path d="M76 181c20 20 48 20 68 0" fill="none" stroke="#B92D2A" stroke-linecap="round" stroke-width="7" opacity=".28"/>
  <path d="M109 43c-6-18-3-31 9-39 9 13 8 27-3 42Z" fill="url(#leaf)"/>
  <path d="M105 47C87 31 75 18 71 4c20 1 34 13 42 36Z" fill="url(#leaf)"/>
  <path d="M115 47c18-16 34-22 50-18-7 16-22 25-45 27Z" fill="url(#leaf)"/>
  <path d="M101 52c-19-4-34 0-46 12 17 10 34 8 51-6Z" fill="url(#leaf)"/>
  <path d="M121 52c19-4 35 0 48 12-18 10-36 8-53-6Z" fill="url(#leaf)"/>
  <ellipse cx="88" cy="105" rx="9" ry="12" fill="#1F2521"/>
  <ellipse cx="132" cy="105" rx="9" ry="12" fill="#1F2521"/>
  <circle cx="85" cy="101" r="3" fill="#fff"/>
  <circle cx="129" cy="101" r="3" fill="#fff"/>
  <path d="M87 134c12 18 34 18 46 0" fill="none" stroke="#671F20" stroke-linecap="round" stroke-width="8"/>
  <circle cx="72" cy="127" r="9" fill="#FF9886" opacity=".46"/>
  <circle cx="149" cy="127" r="9" fill="#FF9886" opacity=".46"/>
  <path d="M77 184h66l-8 29H85Z" fill="url(#basket)"/>
  <path d="M86 184c4-18 45-18 49 0" fill="none" stroke="#9D5E1F" stroke-width="6"/>
  <path d="M82 195h57M88 206h45M96 184l-8 29M111 184v29M126 184l8 29" fill="none" stroke="#8C551F" stroke-width="3" opacity=".45"/>
</svg>
